<?xml version="1.0" encoding="iso-8859-1"?>
<!-- Generator: Adobe Illustrator 21.0.0, SVG Export Plug-In . SVG Version: 6.00 Build 0)  -->
<svg version="1.1" id="&#x56FE;&#x5C42;_1" xmlns="http://www.w3.org/2000/svg" xmlns:xlink="http://www.w3.org/1999/xlink" x="0px"
	 y="0px" viewBox="0 0 620 252" style="enable-background:new 0 0 620 252;" xml:space="preserve">
<path style="fill:#333333;" d="M227.811,94.527h8.397c0.526,0.078,0.789,0.328,0.789,0.749v46.205l1.893-0.394h25.586
	c0.499,0.078,0.749,0.342,0.749,0.788v8.397c0,0.5-0.25,0.749-0.749,0.749h-36.665c-0.5,0-0.749-0.249-0.749-0.749V95.276
	C227.141,94.777,227.39,94.527,227.811,94.527z"/>
<path style="fill:#333333;" d="M273.938,94.586h36.586c0.499,0.078,0.749,0.328,0.749,0.749v7.254c0,0.499-0.25,0.749-0.749,0.749
	h-27.439v15.257h22.866c0.499,0.079,0.749,0.329,0.749,0.749v7.255c0,0.499-0.25,0.749-0.749,0.749h-22.866v14.863h27.439
	c0.499,0.078,0.749,0.328,0.749,0.749v7.254c0,0.499-0.25,0.749-0.749,0.749h-36.586c-0.5,0-0.749-0.25-0.749-0.749V95.335
	C273.267,94.836,273.517,94.586,273.938,94.586z"/>
<path style="fill:#333333;" d="M344.888,94.527h3.391c9.304,0,17.018,4.928,23.142,14.784l-0.749,0.394h-9.855
	c-4.312-4.047-8.739-6.071-13.286-6.071h-1.498c-8.411,0-14.351,4.548-17.82,13.642c-0.526,0.999-0.788,2.392-0.788,4.179v2.642
	c0,7.727,4.56,13.418,13.68,17.07c1.735,0.5,3.246,0.749,4.534,0.749h1.144c8.936,0,15.007-4.796,18.214-14.39h-24.285
	c-0.5,0-0.749-0.263-0.749-0.788v-7.57c0.078-0.499,0.328-0.749,0.749-0.749h32.998c0.368,0,0.749,0.382,1.144,1.144v3.391
	c0,13.3-7.215,22.406-21.645,27.321c-1.893,0.5-3.653,0.749-5.283,0.749h-1.892c-10.724,0-19.069-5.309-25.035-15.928
	c-2.024-4.283-3.035-8.449-3.035-12.497c0-11.328,5.939-20.054,17.819-26.179C339.513,95.158,342.548,94.527,344.888,94.527z"/>
<path style="fill:#333333;" d="M384.233,94.526h8.397c0.525,0.079,0.788,0.329,0.788,0.75v54.997c0,0.499-0.263,0.749-0.788,0.749
	h-8.397c-0.5,0-0.749-0.25-0.749-0.749V95.276C383.563,94.777,383.813,94.526,384.233,94.526z"/>
<path style="fill:#333333;" d="M466.262,94.527h0.395c24.102,22.367,36.152,33.786,36.152,34.26h0.354V95.669
	c0.079-0.499,0.329-0.749,0.749-0.749h8.319c0.499,0.079,0.749,0.329,0.749,0.749v54.958h-0.395l-36.547-34.26v33.905
	c0,0.5-0.25,0.749-0.749,0.749h-8.279c-0.499,0-0.749-0.249-0.749-0.749V94.527z"/>
<path style="fill:#034BDB;" d="M429.815,93.75l-25.476,14.701v14.499v14.924l12.93,7.467l12.546,7.234l25.476-14.701v-29.412
	L429.815,93.75z M446.482,132.786l-16.666,9.617l-8.207-4.733l-8.459-4.885v-9.763v-9.485l16.666-9.617l16.666,9.624V132.786z"/>
<g>
	<polygon style="fill:#034BDB;" points="129.377,110.54 132.667,148.373 167.244,88.872 167.25,88.875 168.453,86.791 
		172.375,80.042 171.577,79.614 151.669,68.042 103.667,95.945 103.667,151.733 122.535,162.887 127.667,154 113.932,145.831 
		113.932,101.875 151.695,80.902 158.429,84.354 139.735,116.271 	"/>
	<polygon style="fill:#034BDB;" points="199.667,95.952 183.299,86.445 178.167,95.333 189.401,101.848 189.401,145.833 
		173.29,155.198 168.893,157.777 168.884,157.761 151.671,167.765 146.516,164.66 165.292,132.604 175.65,138.333 172.36,100.501 
		132.563,168.479 132.572,168.484 132.563,168.5 151.666,179.638 173.15,167.15 184.698,160.472 185.542,159.954 185.54,159.951 
		199.667,151.738 	"/>
</g>
</svg>
